<svg width="497" height="512" viewBox="0 0 497 512" fill="none" xmlns="http://www.w3.org/2000/svg">
<path d="M238.908 131.839C241.336 124.537 251.664 124.537 254.092 131.839L278.331 204.762C279.412 208.013 282.443 210.216 285.869 210.239L362.714 210.757C370.409 210.809 373.601 220.633 367.406 225.198L305.542 270.786C302.784 272.818 301.626 276.381 302.663 279.647L325.916 352.891C328.244 360.225 319.888 366.296 313.632 361.815L251.158 317.067C248.373 315.072 244.627 315.072 241.842 317.067L179.368 361.815C173.112 366.296 164.756 360.225 167.084 352.891L190.337 279.647C191.374 276.381 190.216 272.818 187.458 270.786L125.594 225.198C119.399 220.633 122.591 210.809 130.286 210.757L207.131 210.239C210.557 210.216 213.588 208.013 214.669 204.762L238.908 131.839Z" fill="#1465D0"/>
<path d="M256 0C366.089 0 459.946 69.4906 496.104 167H381.692C353.792 127.668 307.894 102 256 102C170.948 102 102 170.948 102 256C102 341.052 170.948 410 256 410C307.894 410 353.792 384.332 381.692 345H496.104C459.946 442.509 366.089 512 256 512C114.615 512 0 397.385 0 256C0 114.615 114.615 0 256 0Z" fill="#1465D0"/>
</svg>
