<?xml version="1.0" standalone="no"?><!DOCTYPE svg PUBLIC "-//W3C//DTD SVG 1.1//EN" "http://www.w3.org/Graphics/SVG/1.1/DTD/svg11.dtd"><svg t="1743664553740" class="icon" viewBox="0 0 1024 1024" version="1.1" xmlns="http://www.w3.org/2000/svg" p-id="1453" xmlns:xlink="http://www.w3.org/1999/xlink" width="200" height="200"><path d="M112 79.04m32 0l736 0q32 0 32 32l0 832q0 32-32 32l-736 0q-32 0-32-32l0-832q0-32 32-32Z" fill="#CDA1A7" p-id="1454"></path><path d="M128 127.04m0-16l0 0q0-16 16-16l736 0q16 0 16 16l0 0q0 16-16 16l-736 0q-16 0-16-16Z" fill="#DEB4BA" p-id="1455"></path><path d="M208 879.04h480l128-128v-576H208v704z" fill="#FAEFDE" p-id="1456"></path><path d="M688 751.04h128l-128 128v-128z" fill="#BBDEF9" p-id="1457"></path><path d="M816 566.56V233.12L281.12 877.12h260.96L816 566.56zM214.4 853.44l561.6-678.4H704l-504 617.6 14.4 60.8zM208 693.76l424-518.72H608L208 663.52v30.24z" fill="#FFF7F0" p-id="1458"></path><path d="M392 366.88l19.84 36.32L448 423.04l-36.16 19.84-19.84 36.16-19.84-36.16L336 423.04l36.16-19.84 19.84-36.32z" fill="#FFFFFF" p-id="1459"></path><path d="M672 95.04l-160-80-160 80-16 112h352l-16-112z" fill="#F9E3AE" p-id="1460"></path><path d="M630.72 607.04l13.6 24.96 25.12 13.76-25.12 13.6-13.6 25.12-13.76-25.12-24.96-13.6 24.96-13.76 13.76-24.96zM394.4 767.04l9.28 16.96 17.12 9.44-17.12 9.28-9.28 16.96-9.28-16.96-17.12-9.28 17.12-9.44 9.28-16.96z" fill="#FFFFFF" p-id="1461"></path><path d="M512 95.04m-32 0a32 32 0 1 0 64 0 32 32 0 1 0-64 0Z" fill="#8D6C9F" p-id="1462"></path><path d="M880 64H649.28l-43.2-32a160 160 0 0 0-188.16 0l-43.2 32H144a48 48 0 0 0-48 48v832a48 48 0 0 0 48 48h736a48 48 0 0 0 48-48V112a48 48 0 0 0-48-48z m-443.36-5.44a128 128 0 0 1 150.72 0l7.52 5.44 43.84 32 13.44 9.76A48 48 0 0 1 672 144v32a16 16 0 0 1-16 16H368a16 16 0 0 1-16-16V144a48 48 0 0 1 19.84-38.88l13.44-9.12 43.84-32zM800 736h-96a32 32 0 0 0-32 32v96H224V192h98.88A48 48 0 0 0 368 224h288a48 48 0 0 0 45.12-32H800z m-22.56 32L704 841.44V768zM896 944a16 16 0 0 1-16 16H144a16 16 0 0 1-16-16V112a16 16 0 0 1 16-16h192a80 80 0 0 0-16 48v16h-96a32 32 0 0 0-32 32v672a32 32 0 0 0 32 32h450.72a48 48 0 0 0 33.92-14.08l109.28-109.28a48 48 0 0 0 14.08-33.92V192a32 32 0 0 0-32-32h-96V144a80 80 0 0 0-16-48h192a16 16 0 0 1 16 16z" fill="#8D6C9F" p-id="1463"></path><path d="M272 256a16 16 0 0 0-16 16v32a16 16 0 0 0 32 0v-32a16 16 0 0 0-16-16zM352 320a16 16 0 0 0 16-16v-32a16 16 0 0 0-32 0v32a16 16 0 0 0 16 16zM432 320a16 16 0 0 0 16-16v-32a16 16 0 0 0-32 0v32a16 16 0 0 0 16 16zM512 320a16 16 0 0 0 16-16v-32a16 16 0 0 0-32 0v32a16 16 0 0 0 16 16zM592 320a16 16 0 0 0 16-16v-32a16 16 0 0 0-32 0v32a16 16 0 0 0 16 16zM672 320a16 16 0 0 0 16-16v-32a16 16 0 0 0-32 0v32a16 16 0 0 0 16 16zM752 320a16 16 0 0 0 16-16v-32a16 16 0 0 0-32 0v32a16 16 0 0 0 16 16z" fill="#8D6C9F" p-id="1464"></path><path d="M512 96m-32 0a32 32 0 1 0 64 0 32 32 0 1 0-64 0Z" fill="#8D6C9F" p-id="1465"></path><path d="M464 649.44l-116.64-116.64a16 16 0 0 0-22.56 22.56l128 128a16 16 0 0 0 22.56 0l240-240a16 16 0 0 0-22.56-22.56z" fill="#8D6C9F" p-id="1466"></path></svg>